{
	"patcher" : 	{
		"fileversion" : 1,
		"appversion" : 		{
			"major" : 5,
			"minor" : 1,
			"revision" : 9
		}
,
		"rect" : [ 321.0, 98.0, 678.0, 584.0 ],
		"bglocked" : 0,
		"defrect" : [ 321.0, 98.0, 678.0, 584.0 ],
		"openrect" : [ 0.0, 0.0, 0.0, 0.0 ],
		"openinpresentation" : 0,
		"default_fontsize" : 12.0,
		"default_fontface" : 0,
		"default_fontname" : "Arial",
		"gridonopen" : 0,
		"gridsize" : [ 15.0, 15.0 ],
		"gridsnaponopen" : 0,
		"toolbarvisible" : 1,
		"boxanimatetime" : 200,
		"imprint" : 0,
		"enablehscroll" : 1,
		"enablevscroll" : 1,
		"devicewidth" : 0.0,
		"boxes" : [ 			{
				"box" : 				{
					"maxclass" : "newobj",
					"text" : "r lev",
					"patching_rect" : [ 111.0, 168.0, 33.0, 20.0 ],
					"id" : "obj-4",
					"fontname" : "Arial",
					"numinlets" : 0,
					"numoutlets" : 1,
					"fontsize" : 12.0,
					"outlettype" : [ "" ]
				}

			}
, 			{
				"box" : 				{
					"maxclass" : "newobj",
					"text" : "loadbang",
					"patching_rect" : [ 48.0, 170.0, 60.0, 20.0 ],
					"id" : "obj-2",
					"fontname" : "Arial",
					"numinlets" : 1,
					"numoutlets" : 1,
					"fontsize" : 12.0,
					"outlettype" : [ "bang" ]
				}

			}
, 			{
				"box" : 				{
					"maxclass" : "outlet",
					"patching_rect" : [ 268.0, 500.0, 25.0, 25.0 ],
					"id" : "obj-13",
					"numinlets" : 1,
					"numoutlets" : 0,
					"comment" : ""
				}

			}
, 			{
				"box" : 				{
					"maxclass" : "inlet",
					"patching_rect" : [ 264.0, 21.0, 25.0, 25.0 ],
					"id" : "obj-5",
					"numinlets" : 0,
					"numoutlets" : 1,
					"outlettype" : [ "" ],
					"comment" : ""
				}

			}
, 			{
				"box" : 				{
					"maxclass" : "number",
					"patching_rect" : [ 510.0, 215.0, 50.0, 20.0 ],
					"id" : "obj-41",
					"fontname" : "Arial",
					"numinlets" : 1,
					"numoutlets" : 2,
					"fontsize" : 12.0,
					"outlettype" : [ "int", "bang" ]
				}

			}
, 			{
				"box" : 				{
					"maxclass" : "newobj",
					"text" : "line",
					"patching_rect" : [ 544.0, 242.0, 46.0, 20.0 ],
					"id" : "obj-42",
					"fontname" : "Arial",
					"numinlets" : 3,
					"numoutlets" : 2,
					"fontsize" : 12.0,
					"outlettype" : [ "", "" ]
				}

			}
, 			{
				"box" : 				{
					"maxclass" : "number",
					"patching_rect" : [ 48.0, 227.0, 50.0, 20.0 ],
					"id" : "obj-38",
					"fontname" : "Arial",
					"numinlets" : 1,
					"numoutlets" : 2,
					"fontsize" : 12.0,
					"outlettype" : [ "int", "bang" ]
				}

			}
, 			{
				"box" : 				{
					"maxclass" : "newobj",
					"text" : "- 0.1",
					"patching_rect" : [ 157.0, 154.0, 35.0, 20.0 ],
					"id" : "obj-33",
					"fontname" : "Arial",
					"numinlets" : 2,
					"numoutlets" : 1,
					"fontsize" : 12.0,
					"outlettype" : [ "float" ]
				}

			}
, 			{
				"box" : 				{
					"maxclass" : "gain~",
					"patching_rect" : [ 159.0, 295.0, 20.0, 140.0 ],
					"id" : "obj-34",
					"numinlets" : 2,
					"numoutlets" : 2,
					"outlettype" : [ "signal", "int" ]
				}

			}
, 			{
				"box" : 				{
					"maxclass" : "flonum",
					"patching_rect" : [ 157.0, 215.0, 50.0, 20.0 ],
					"id" : "obj-35",
					"fontname" : "Arial",
					"numinlets" : 1,
					"numoutlets" : 2,
					"fontsize" : 12.0,
					"outlettype" : [ "float", "bang" ]
				}

			}
, 			{
				"box" : 				{
					"maxclass" : "newobj",
					"text" : "saw~",
					"patching_rect" : [ 157.0, 249.0, 39.0, 20.0 ],
					"id" : "obj-36",
					"fontname" : "Arial",
					"numinlets" : 2,
					"numoutlets" : 1,
					"fontsize" : 12.0,
					"outlettype" : [ "signal" ]
				}

			}
, 			{
				"box" : 				{
					"maxclass" : "newobj",
					"text" : "line",
					"patching_rect" : [ 82.0, 254.0, 46.0, 20.0 ],
					"id" : "obj-32",
					"fontname" : "Arial",
					"numinlets" : 3,
					"numoutlets" : 2,
					"fontsize" : 12.0,
					"outlettype" : [ "", "" ]
				}

			}
, 			{
				"box" : 				{
					"maxclass" : "newobj",
					"text" : "/ 1.1",
					"patching_rect" : [ 384.0, 154.0, 34.0, 20.0 ],
					"id" : "obj-28",
					"fontname" : "Arial",
					"numinlets" : 2,
					"numoutlets" : 1,
					"fontsize" : 12.0,
					"outlettype" : [ "float" ]
				}

			}
, 			{
				"box" : 				{
					"maxclass" : "gain~",
					"patching_rect" : [ 386.0, 295.0, 20.0, 140.0 ],
					"id" : "obj-29",
					"numinlets" : 2,
					"numoutlets" : 2,
					"outlettype" : [ "signal", "int" ]
				}

			}
, 			{
				"box" : 				{
					"maxclass" : "flonum",
					"patching_rect" : [ 384.0, 215.0, 50.0, 20.0 ],
					"id" : "obj-30",
					"fontname" : "Arial",
					"numinlets" : 1,
					"numoutlets" : 2,
					"fontsize" : 12.0,
					"outlettype" : [ "float", "bang" ]
				}

			}
, 			{
				"box" : 				{
					"maxclass" : "newobj",
					"text" : "saw~",
					"patching_rect" : [ 384.0, 249.0, 39.0, 20.0 ],
					"id" : "obj-31",
					"fontname" : "Arial",
					"numinlets" : 2,
					"numoutlets" : 1,
					"fontsize" : 12.0,
					"outlettype" : [ "signal" ]
				}

			}
, 			{
				"box" : 				{
					"maxclass" : "newobj",
					"text" : "+ 0.1",
					"patching_rect" : [ 209.0, 154.0, 38.0, 20.0 ],
					"id" : "obj-24",
					"fontname" : "Arial",
					"numinlets" : 2,
					"numoutlets" : 1,
					"fontsize" : 12.0,
					"outlettype" : [ "float" ]
				}

			}
, 			{
				"box" : 				{
					"maxclass" : "gain~",
					"patching_rect" : [ 211.0, 295.0, 20.0, 140.0 ],
					"id" : "obj-21",
					"numinlets" : 2,
					"numoutlets" : 2,
					"outlettype" : [ "signal", "int" ]
				}

			}
, 			{
				"box" : 				{
					"maxclass" : "flonum",
					"patching_rect" : [ 209.0, 215.0, 50.0, 20.0 ],
					"id" : "obj-22",
					"fontname" : "Arial",
					"numinlets" : 1,
					"numoutlets" : 2,
					"fontsize" : 12.0,
					"outlettype" : [ "float", "bang" ]
				}

			}
, 			{
				"box" : 				{
					"maxclass" : "newobj",
					"text" : "saw~",
					"patching_rect" : [ 209.0, 249.0, 39.0, 20.0 ],
					"id" : "obj-23",
					"fontname" : "Arial",
					"numinlets" : 2,
					"numoutlets" : 1,
					"fontsize" : 12.0,
					"outlettype" : [ "signal" ]
				}

			}
, 			{
				"box" : 				{
					"maxclass" : "newobj",
					"text" : "* 1.1",
					"patching_rect" : [ 320.0, 154.0, 35.0, 20.0 ],
					"id" : "obj-10",
					"fontname" : "Arial",
					"numinlets" : 2,
					"numoutlets" : 1,
					"fontsize" : 12.0,
					"outlettype" : [ "float" ]
				}

			}
, 			{
				"box" : 				{
					"maxclass" : "gain~",
					"patching_rect" : [ 322.0, 295.0, 20.0, 140.0 ],
					"id" : "obj-7",
					"numinlets" : 2,
					"numoutlets" : 2,
					"outlettype" : [ "signal", "int" ]
				}

			}
, 			{
				"box" : 				{
					"maxclass" : "flonum",
					"patching_rect" : [ 320.0, 215.0, 50.0, 20.0 ],
					"id" : "obj-8",
					"fontname" : "Arial",
					"numinlets" : 1,
					"numoutlets" : 2,
					"fontsize" : 12.0,
					"outlettype" : [ "float", "bang" ]
				}

			}
, 			{
				"box" : 				{
					"maxclass" : "newobj",
					"text" : "saw~",
					"patching_rect" : [ 320.0, 249.0, 39.0, 20.0 ],
					"id" : "obj-9",
					"fontname" : "Arial",
					"numinlets" : 2,
					"numoutlets" : 1,
					"fontsize" : 12.0,
					"outlettype" : [ "signal" ]
				}

			}
, 			{
				"box" : 				{
					"maxclass" : "gain~",
					"patching_rect" : [ 267.0, 295.0, 20.0, 140.0 ],
					"id" : "obj-6",
					"numinlets" : 2,
					"numoutlets" : 2,
					"outlettype" : [ "signal", "int" ]
				}

			}
, 			{
				"box" : 				{
					"maxclass" : "flonum",
					"patching_rect" : [ 261.0, 215.0, 50.0, 20.0 ],
					"id" : "obj-3",
					"fontname" : "Arial",
					"numinlets" : 1,
					"numoutlets" : 2,
					"fontsize" : 12.0,
					"outlettype" : [ "float", "bang" ]
				}

			}
, 			{
				"box" : 				{
					"maxclass" : "newobj",
					"text" : "saw~",
					"patching_rect" : [ 261.0, 249.0, 39.0, 20.0 ],
					"id" : "obj-1",
					"fontname" : "Arial",
					"numinlets" : 2,
					"numoutlets" : 1,
					"fontsize" : 12.0,
					"outlettype" : [ "signal" ]
				}

			}
 ],
		"lines" : [ 			{
				"patchline" : 				{
					"source" : [ "obj-30", 0 ],
					"destination" : [ "obj-31", 0 ],
					"hidden" : 0,
					"midpoints" : [  ]
				}

			}
, 			{
				"patchline" : 				{
					"source" : [ "obj-31", 0 ],
					"destination" : [ "obj-29", 0 ],
					"hidden" : 0,
					"midpoints" : [  ]
				}

			}
, 			{
				"patchline" : 				{
					"source" : [ "obj-9", 0 ],
					"destination" : [ "obj-7", 0 ],
					"hidden" : 0,
					"midpoints" : [  ]
				}

			}
, 			{
				"patchline" : 				{
					"source" : [ "obj-8", 0 ],
					"destination" : [ "obj-9", 0 ],
					"hidden" : 0,
					"midpoints" : [  ]
				}

			}
, 			{
				"patchline" : 				{
					"source" : [ "obj-3", 0 ],
					"destination" : [ "obj-1", 0 ],
					"hidden" : 0,
					"midpoints" : [  ]
				}

			}
, 			{
				"patchline" : 				{
					"source" : [ "obj-1", 0 ],
					"destination" : [ "obj-6", 0 ],
					"hidden" : 0,
					"midpoints" : [  ]
				}

			}
, 			{
				"patchline" : 				{
					"source" : [ "obj-23", 0 ],
					"destination" : [ "obj-21", 0 ],
					"hidden" : 0,
					"midpoints" : [  ]
				}

			}
, 			{
				"patchline" : 				{
					"source" : [ "obj-22", 0 ],
					"destination" : [ "obj-23", 0 ],
					"hidden" : 0,
					"midpoints" : [  ]
				}

			}
, 			{
				"patchline" : 				{
					"source" : [ "obj-35", 0 ],
					"destination" : [ "obj-36", 0 ],
					"hidden" : 0,
					"midpoints" : [  ]
				}

			}
, 			{
				"patchline" : 				{
					"source" : [ "obj-36", 0 ],
					"destination" : [ "obj-34", 0 ],
					"hidden" : 0,
					"midpoints" : [  ]
				}

			}
, 			{
				"patchline" : 				{
					"source" : [ "obj-2", 0 ],
					"destination" : [ "obj-38", 0 ],
					"hidden" : 0,
					"midpoints" : [  ]
				}

			}
, 			{
				"patchline" : 				{
					"source" : [ "obj-29", 0 ],
					"destination" : [ "obj-13", 0 ],
					"hidden" : 0,
					"midpoints" : [  ]
				}

			}
, 			{
				"patchline" : 				{
					"source" : [ "obj-7", 0 ],
					"destination" : [ "obj-13", 0 ],
					"hidden" : 0,
					"midpoints" : [  ]
				}

			}
, 			{
				"patchline" : 				{
					"source" : [ "obj-6", 0 ],
					"destination" : [ "obj-13", 0 ],
					"hidden" : 0,
					"midpoints" : [  ]
				}

			}
, 			{
				"patchline" : 				{
					"source" : [ "obj-21", 0 ],
					"destination" : [ "obj-13", 0 ],
					"hidden" : 0,
					"midpoints" : [  ]
				}

			}
, 			{
				"patchline" : 				{
					"source" : [ "obj-34", 0 ],
					"destination" : [ "obj-13", 0 ],
					"hidden" : 0,
					"midpoints" : [  ]
				}

			}
, 			{
				"patchline" : 				{
					"source" : [ "obj-5", 0 ],
					"destination" : [ "obj-3", 0 ],
					"hidden" : 0,
					"midpoints" : [  ]
				}

			}
, 			{
				"patchline" : 				{
					"source" : [ "obj-5", 0 ],
					"destination" : [ "obj-28", 0 ],
					"hidden" : 0,
					"midpoints" : [  ]
				}

			}
, 			{
				"patchline" : 				{
					"source" : [ "obj-5", 0 ],
					"destination" : [ "obj-10", 0 ],
					"hidden" : 0,
					"midpoints" : [  ]
				}

			}
, 			{
				"patchline" : 				{
					"source" : [ "obj-5", 0 ],
					"destination" : [ "obj-33", 0 ],
					"hidden" : 0,
					"midpoints" : [  ]
				}

			}
, 			{
				"patchline" : 				{
					"source" : [ "obj-42", 0 ],
					"destination" : [ "obj-29", 0 ],
					"hidden" : 0,
					"midpoints" : [  ]
				}

			}
, 			{
				"patchline" : 				{
					"source" : [ "obj-42", 0 ],
					"destination" : [ "obj-7", 0 ],
					"hidden" : 0,
					"midpoints" : [  ]
				}

			}
, 			{
				"patchline" : 				{
					"source" : [ "obj-42", 0 ],
					"destination" : [ "obj-21", 0 ],
					"hidden" : 0,
					"midpoints" : [  ]
				}

			}
, 			{
				"patchline" : 				{
					"source" : [ "obj-42", 0 ],
					"destination" : [ "obj-34", 0 ],
					"hidden" : 0,
					"midpoints" : [  ]
				}

			}
, 			{
				"patchline" : 				{
					"source" : [ "obj-41", 0 ],
					"destination" : [ "obj-42", 0 ],
					"hidden" : 0,
					"midpoints" : [  ]
				}

			}
, 			{
				"patchline" : 				{
					"source" : [ "obj-38", 0 ],
					"destination" : [ "obj-32", 0 ],
					"hidden" : 0,
					"midpoints" : [  ]
				}

			}
, 			{
				"patchline" : 				{
					"source" : [ "obj-32", 0 ],
					"destination" : [ "obj-29", 0 ],
					"hidden" : 0,
					"midpoints" : [  ]
				}

			}
, 			{
				"patchline" : 				{
					"source" : [ "obj-32", 0 ],
					"destination" : [ "obj-7", 0 ],
					"hidden" : 0,
					"midpoints" : [  ]
				}

			}
, 			{
				"patchline" : 				{
					"source" : [ "obj-32", 0 ],
					"destination" : [ "obj-6", 0 ],
					"hidden" : 0,
					"midpoints" : [  ]
				}

			}
, 			{
				"patchline" : 				{
					"source" : [ "obj-32", 0 ],
					"destination" : [ "obj-21", 0 ],
					"hidden" : 0,
					"midpoints" : [  ]
				}

			}
, 			{
				"patchline" : 				{
					"source" : [ "obj-32", 0 ],
					"destination" : [ "obj-34", 0 ],
					"hidden" : 0,
					"midpoints" : [  ]
				}

			}
, 			{
				"patchline" : 				{
					"source" : [ "obj-33", 0 ],
					"destination" : [ "obj-35", 0 ],
					"hidden" : 0,
					"midpoints" : [  ]
				}

			}
, 			{
				"patchline" : 				{
					"source" : [ "obj-28", 0 ],
					"destination" : [ "obj-30", 0 ],
					"hidden" : 0,
					"midpoints" : [  ]
				}

			}
, 			{
				"patchline" : 				{
					"source" : [ "obj-10", 0 ],
					"destination" : [ "obj-8", 0 ],
					"hidden" : 0,
					"midpoints" : [  ]
				}

			}
, 			{
				"patchline" : 				{
					"source" : [ "obj-24", 0 ],
					"destination" : [ "obj-22", 0 ],
					"hidden" : 0,
					"midpoints" : [  ]
				}

			}
, 			{
				"patchline" : 				{
					"source" : [ "obj-5", 0 ],
					"destination" : [ "obj-24", 0 ],
					"hidden" : 0,
					"midpoints" : [  ]
				}

			}
, 			{
				"patchline" : 				{
					"source" : [ "obj-4", 0 ],
					"destination" : [ "obj-38", 0 ],
					"hidden" : 0,
					"midpoints" : [  ]
				}

			}
 ]
	}

}
